<?xml version="1.0" encoding="UTF-8" standalone="no"?><!DOCTYPE svg PUBLIC "-//W3C//DTD SVG 1.1//EN" "http://www.w3.org/Graphics/SVG/1.1/DTD/svg11.dtd"><svg width="100%" height="100%" viewBox="0 0 240 240" version="1.1" xmlns="http://www.w3.org/2000/svg" xmlns:xlink="http://www.w3.org/1999/xlink" xml:space="preserve" xmlns:serif="http://www.serif.com/" style="fill-rule:evenodd;clip-rule:evenodd;stroke-linejoin:round;stroke-miterlimit:2;"><path d="M112.225,211.523c-30.633,2.468 -49.171,-12.422 -62.791,-75.793c-9.73,-45.271 56.448,-93.869 56.448,-93.869c0,0 -34.884,91.332 -11.734,91.966c23.794,0.652 7.296,-38.632 13.002,-44.08c7.03,-6.712 24.207,-9.725 29.493,-19.662c5.285,-9.937 -3.171,-41.861 -3.171,-41.861c0,0 23.52,19.503 27.907,30.127c4.281,10.368 9.414,31.801 -1.586,33.615c-32.537,5.366 -13.992,50.944 -11.734,52.326c21.247,13.002 27.59,-51.374 27.59,-51.374c0,0 11.609,33.47 15.539,48.837c5.195,20.314 -48.235,67.292 -78.964,69.768Z"/></svg>